<svg width="20" height="20" viewBox="0 0 20 20" fill="none" xmlns="http://www.w3.org/2000/svg">
<path fill-rule="evenodd" clip-rule="evenodd" d="M18.7777 1.01018C17.5222 -0.298347 15.4436 -0.341269 14.135 0.914305L9.94463 4.93514L5.75423 0.914305C4.44571 -0.341269 2.36709 -0.298347 1.11152 1.01018C-0.144053 2.3187 -0.101129 4.39731 1.2074 5.65289L5.202 9.48585L1.01018 13.5081C-0.298346 14.7636 -0.34127 16.8422 0.914304 18.1508C2.16988 19.4593 4.24849 19.5022 5.55702 18.2466L9.94463 14.0366L14.3322 18.2466C15.6408 19.5022 17.7194 19.4593 18.975 18.1508C20.2305 16.8422 20.1876 14.7636 18.8791 13.5081L14.6873 9.48585L18.6819 5.65289C19.9904 4.39731 20.0333 2.3187 18.7777 1.01018Z" fill="white"/>
</svg>
