<svg width="63" height="63" viewBox="0 0 63 63" fill="none" xmlns="http://www.w3.org/2000/svg">
<rect width="63" height="63" rx="31.5" fill="url(#paint0_linear_2_549)"/>
<path d="M28.5 20.4531H33.5L33.0781 35.5781H28.9062L28.5 20.4531ZM31 43.4688C30.125 43.4688 29.4323 43.2344 28.9219 42.7656C28.4115 42.2865 28.1562 41.6354 28.1562 40.8125C28.1562 39.9896 28.4115 39.3385 28.9219 38.8594C29.4323 38.3802 30.125 38.1406 31 38.1406C31.8854 38.1406 32.5781 38.3802 33.0781 38.8594C33.5885 39.3281 33.8438 39.9792 33.8438 40.8125C33.8438 41.6354 33.5885 42.2865 33.0781 42.7656C32.5781 43.2344 31.8854 43.4688 31 43.4688Z" fill="white"/>
<defs>
<linearGradient id="paint0_linear_2_549" x1="31.5" y1="0" x2="31.5" y2="63" gradientUnits="userSpaceOnUse">
<stop stop-color="#FF0000"/>
<stop offset="1" stop-color="#FEED00"/>
</linearGradient>
</defs>
</svg>
