<svg width="22" height="25" viewBox="0 0 22 25" fill="none" xmlns="http://www.w3.org/2000/svg">
<path d="M7.5 2.50008V0.166748H14.5V2.50008H7.5ZM9.83333 15.3334H12.1667V8.33341H9.83333V15.3334ZM11 24.6667C9.56111 24.6667 8.20467 24.3899 6.93067 23.8361C5.65667 23.2823 4.54367 22.5286 3.59167 21.5751C2.63967 20.6215 1.88639 19.5081 1.33183 18.2349C0.777278 16.9617 0.5 15.6056 0.5 14.1667C0.5 12.7279 0.777278 11.3714 1.33183 10.0974C1.88639 8.82341 2.63967 7.71041 3.59167 6.75841C4.54367 5.80641 5.65705 5.05314 6.93183 4.49858C8.20661 3.94403 9.56267 3.66675 11 3.66675C12.2056 3.66675 13.3625 3.86119 14.4708 4.25008C15.5792 4.63897 16.6194 5.20286 17.5917 5.94175L19.225 4.30841L20.8583 5.94175L19.225 7.57508C19.9639 8.5473 20.5278 9.58758 20.9167 10.6959C21.3056 11.8042 21.5 12.9612 21.5 14.1667C21.5 15.6056 21.2227 16.9621 20.6682 18.2361C20.1136 19.5101 19.3603 20.6231 18.4083 21.5751C17.4563 22.5271 16.3429 23.2807 15.0682 23.8361C13.7934 24.3914 12.4373 24.6683 11 24.6667Z" fill="white"/>
</svg>
